<svg viewBox="0 0 64 64" xmlns="http://www.w3.org/2000/svg" class='icon'>
<g transform="translate(0 -1)">
<defs>

</defs>
<title>Coding, custom, development, seo, web</title>
<g data-name="2">
<path class="cls-1" d="m52 57h-40a5.006 5.006 0 0 1-5-5v-2a1 1 0 0 1 1-1h48a1 1 0 0 1 1 1v2a5.006 5.006 0 0 1-5 5zm-43-6v1a3 3 0 0 0 3 3h40a3 3 0 0 0 3-3v-1z"/>
<path class="cls-1" d="m36 54h-8a1 1 0 0 1-1-1v-3a1 1 0 0 1 2 0v2h6v-2a1 1 0 0 1 2 0v3a1 1 0 0 1-1 1z"/>
<path class="cls-1" d="M54,51H10a1,1,0,0,1-1-1V16a1,1,0,0,1,1-1h8a1,1,0,0,1,0,2H11V49H53V17H50a1,1,0,0,1,0-2h4a1,1,0,0,1,1,1V50A1,1,0,0,1,54,51Z"/>
<path class="cls-1" d="M46,44H18a1,1,0,0,1-1-1V8a1,1,0,0,1,1-1H46a1,1,0,0,1,1,1V43A1,1,0,0,1,46,44ZM19,42H45V9H19Z"/>
<path class="cls-1" d="M27,24a1,1,0,0,1-.707-.293l-4-4a1,1,0,0,1,0-1.414l4-4a1,1,0,0,1,1.414,1.414L24.414,19l3.293,3.293A1,1,0,0,1,27,24Z"/>
<path class="cls-1" d="M37,24a1,1,0,0,1-.707-1.707L39.586,19l-3.293-3.293a1,1,0,0,1,1.414-1.414l4,4a1,1,0,0,1,0,1.414l-4,4A1,1,0,0,1,37,24Z"/>
<path class="cls-1" d="M30,24a1,1,0,0,1-.894-1.447l4-8a1,1,0,1,1,1.79.894l-4,8A1,1,0,0,1,30,24Z"/>
<path class="cls-1" d="M37,29H27a1,1,0,0,1,0-2H37a1,1,0,0,1,0,2Z"/>
<path class="cls-1" d="M37,34H27a1,1,0,0,1,0-2H37a1,1,0,0,1,0,2Z"/>
<path class="cls-1" d="M37,39H27a1,1,0,0,1,0-2H37a1,1,0,0,1,0,2Z"/>
</g>
</svg>
