
<svg data-name="Слой 1" viewBox="0 0 100 100" xmlns="http://www.w3.org/2000/svg" class='icon'>
<g transform="translate(0 -1)">
<title>testМонтажная область 5</title>
<path d="M70,7.5H30A4.5,4.5,0,0,0,25.5,12V88A4.5,4.5,0,0,0,30,92.5H70A4.5,4.5,0,0,0,74.5,88V12A4.5,4.5,0,0,0,70,7.5Zm-41.5,13h43v55h-43Zm1.5-10H70A1.5,1.5,0,0,1,71.5,12v5.5h-43V12A1.5,1.5,0,0,1,30,10.5Zm40,79H30A1.5,1.5,0,0,1,28.5,88V78.5h43V88A1.5,1.5,0,0,1,70,89.5Z"/>
<circle cx="50" cy="84" r="2"/>
<path d="m51.5 45.61v-10c2.86 0.53 5 2.52 5 4.9a1.5 1.5 0 0 0 3 0c0-4-3.47-7.32-8-7.93v-2.58a1.5 1.5 0 0 0-3 0v2.53c-4.53 0.61-8 3.93-8 7.93s3.47 7.31 8 7.92v10c-2.86-0.53-5-2.52-5-4.9a1.5 1.5 0 0 0-3 0c0 4 3.47 7.32 8 7.93v2.59a1.5 1.5 0 0 0 3 0v-2.53c4.53-0.61 8-3.93 8-7.93s-3.5-7.32-8-7.93zm-8-5.14c0-2.38 2.14-4.37 5-4.9v9.79c-2.86-0.53-5-2.52-5-4.9zm8 18v-9.8c2.86 0.53 5 2.52 5 4.89s-2.14 4.35-5 4.88z"/>
</svg>
